#!OML:ASF X:\für Bonn\!DataBase\2005_08_11_Bastian_Final\c3d\Bastian.ASF
:FULLY-SPECIFIED
:DEGREES
33
root 3.43912 20.2743 -13.7812 1080.09 4.01496 -5.40811
lowerback -6.64345 -2.93418 -0.334638
upperback 2.2231 -3.93003 0.663328
thorax 6.11149 -1.96382 0.411897
lowerneck -13.742 -3.24683 -5.32433
upperneck 4.45659 -4.12041 8.58249
head 3.85362 -1.68336 3.20351
rclavicle 2.73329e-015 2.14687e-014
rhumerus -51.9121 20.1404 -89.7391
rradius 77.8573
rwrist 4.96596
rhand -22.1477 18.2327
rfingers 7.12502
rthumb 4.26613 -11.7043
lclavicle 2.73329e-015 2.14687e-014
lhumerus -36.9307 -23.6883 81.7436
lradius 83.8276
lwrist -154.664
lhand -19.8127 5.64357
lfingers 7.12502
lthumb 6.52061 35.5232
rfemur 2.00552 3.12979 32.1218
rtibia 43.6714
rfoot 23.2151 2.25432
rtoes -18.6587
lfemur -8.67049 0.728973 -13.658
ltibia 69.9033
lfoot 23.4069 -0.0685622
ltoes -27.4822
34
root 3.44854 20.43 -13.5566 1079.46 3.98636 -5.53883
lowerback -5.28226 -2.65984 -0.0308141
upperback 2.63228 -3.58276 0.532413
thorax 5.73112 -1.78293 0.205286
lowerneck -13.9517 -3.54475 -5.75293
upperneck 4.40293 -4.46616 8.96628
head 3.91565 -1.83726 3.36323
rclavicle -2.9271e-014 3.18055e-015
rhumerus -51.4691 19.92 -89.7047
rradius 77.994
rwrist 4.93213
rhand -21.6511 17.8457
rfingers 7.12502
rthumb 4.74564 -12.0812
lclavicle -2.9271e-014 3.18055e-015
lhumerus -36.4467 -22.8843 81.8022
lradius 83.634
lwrist -155.249
lhand -19.8286 4.84642
lfingers 7.12502
lthumb 6.50531 34.7265
rfemur 1.58328 1.74464 31.9667
rtibia 45.464
rfoot 23.0594 2.2039
rtoes -20.9439
lfemur -10.031 1.30335 -13.5242
ltibia 72.2506
lfoot 23.3618 0.387661
ltoes -25.8142
35
root 3.45898 20.5812 -13.3277 1078.92 3.90215 -5.63796
lowerback -4.00104 -2.40077 0.235106
upperback 3.03889 -3.24727 0.429609
thorax 5.4018 -1.60851 0.0334026
lowerneck -14.0717 -3.81732 -6.17044
upperneck 4.24146 -4.77273 9.32154
head 3.92916 -1.97657 3.5159
rclavicle -4.55714e-014 9.54166e-015
rhumerus -50.94 19.8334 -89.7015
rradius 77.9084
rwrist 4.7999
rhand -21.0268 17.463
rfingers 7.12502
rthumb 5.34847 -12.4495
lclavicle -4.55714e-014 9.54166e-015
lhumerus -35.9267 -21.8605 81.9305
lradius 83.2447
lwrist -156.183
lhand -19.9453 4.15225
lfingers 7.12502
lthumb 6.39258 34.0358
rfemur 0.985031 0.482146 31.7607
rtibia 47.3282
rfoot 22.8457 0.294425
rtoes -21.6726
lfemur -11.3743 1.83817 -13.4598
ltibia 74.299
lfoot 22.9667 0.464269
ltoes -25.7631
36
root 3.46919 20.7276 -13.0985 1078.44 3.77083 -5.67337
lowerback -2.74399 -2.16268 0.412794
upperback 3.4393 -2.92891 0.33053
thorax 5.08833 -1.44491 -0.0974764
lowerneck -14.1747 -4.04422 -6.52376
upperneck 4.07919 -5.02754 9.65783
head 3.93584 -2.09046 3.65637
rclavicle 3.46382e-014 -1.11319e-014
rhumerus -50.3323 19.8827 -89.7454
rradius 77.5905
rwrist 4.67364
rhand -20.326 17.0228
rfingers 7.12502
rthumb 6.02508 -12.8715
lclavicle 3.46382e-014 -1.11319e-014
lhumerus -35.4379 -20.5042 82.0809
lradius 82.6977
lwrist -157.431
lhand -20.2058 3.58818
lfingers 7.12502
lthumb 6.14116 33.4792
rfemur 0.280381 -0.670372 31.471
rtibia 49.1876
rfoot 22.2317 -2.37104
rtoes -22.7112
lfemur -12.7007 2.29927 -13.4962
ltibia 76.0369
lfoot 22.2918 0.361555
ltoes -26.442
37
root 3.48025 20.8644 -12.8757 1078.03 3.61052 -5.64818
lowerback -1.42647 -1.93498 0.509648
upperback 3.80844 -2.61702 0.250609
thorax 4.71561 -1.28748 -0.170171
lowerneck -14.2044 -4.23978 -6.75443
upperneck 3.84257 -5.24681 9.84404
head 3.8987 -2.1955 3.73372
rclavicle -1.88845e-015 2.38542e-015
rhumerus -49.604 20.0173 -89.7796
rradius 77.0018
rwrist 4.6126
rhand -19.5684 16.6358
rfingers 7.12502
rthumb 6.75651 -13.2364
lclavicle -1.88845e-015 2.38542e-015
lhumerus -35.0529 -18.9742 82.2748
lradius 82.1495
lwrist -158.936
lhand -20.5034 3.16885
lfingers 7.12502
lthumb 5.85382 33.068
rfemur -0.526624 -1.68825 31.1147
rtibia 51.0206
rfoot 20.9809 -5.7267
rtoes -22.8244
lfemur -14.0772 2.69182 -13.6188
ltibia 77.4984
lfoot 21.5169 -0.249228
ltoes -28.0731
38
root 3.49114 20.9947 -12.6588 1077.68 3.46364 -5.59634
lowerback -0.0494319 -1.7274 0.588222
upperback 4.14781 -2.32865 0.174736
thorax 4.28188 -1.14211 -0.236612
lowerneck -14.2446 -4.41998 -6.98721
upperneck 3.63548 -5.44813 10.0526
head 3.87255 -2.28984 3.81968
rclavicle -1.35174e-014 1.43125e-014
rhumerus -48.8519 20.2123 -89.8137
rradius 76.2589
rwrist 4.69181
rhand -18.862 16.3235
rfingers 7.12502
rthumb 7.4384 -13.5258
lclavicle -1.35174e-014 1.43125e-014
lhumerus -34.6599 -17.3819 82.4675
lradius 81.5323
lwrist -160.5
lhand -20.8586 2.91048
lfingers 7.12502
lthumb 5.51087 32.8188
rfemur -1.43457 -2.61058 30.7341
rtibia 52.7584
rfoot 19.2451 -9.11423
rtoes -21.4985
lfemur -15.3914 2.95014 -13.7977
ltibia 78.5195
lfoot 20.7882 -1.21989
ltoes -29.7449
39
root 3.50277 21.1008 -12.4495 1077.38 3.26324 -5.53761
lowerback 1.28657 -1.50032 0.686229
upperback 4.48063 -2.01254 0.0794086
thorax 3.86713 -0.981058 -0.344247
lowerneck -14.2517 -4.58175 -7.0373
upperneck 3.39405 -5.64783 10.1601
head 3.82281 -2.38709 3.84487
rclavicle 3.97569e-016 -3.97569e-015
rhumerus -48.0527 20.3615 -89.8965
rradius 75.3711
rwrist 4.80843
rhand -18.2123 16.0946
rfingers 7.12502
rthumb 8.06547 -13.7314
lclavicle 3.97569e-016 -3.97569e-015
lhumerus -34.2549 -15.9474 82.6035
lradius 80.9094
lwrist -161.834
lhand -21.1045 2.68891
lfingers 7.12502
lthumb 5.27345 32.6033
rfemur -2.48697 -3.36593 30.3731
rtibia 54.384
rfoot 17.2738 -11.8725
rtoes -18.7931
lfemur -16.6949 3.15394 -14.0137
ltibia 79.1541
lfoot 20.0672 -2.26968
ltoes -30.9502
40
root 3.51386 21.1996 -12.2427 1077.13 3.0355 -5.47905
lowerback 2.59822 -1.27418 0.762977
upperback 4.81608 -1.69721 0.0175273
thorax 3.47524 -0.821156 -0.416804
lowerneck -14.2728 -4.7479 -7.16692
upperneck 3.14737 -5.83926 10.2866
head 3.77627 -2.48035 3.88956
rclavicle 6.26172e-015 0
rhumerus -47.2502 20.6152 -89.922
rradius 74.3938
rwrist 5.00743
rhand -17.6437 15.986
rfingers 7.12502
rthumb 8.61418 -13.8183
lclavicle 6.26172e-015 0
lhumerus -33.934 -14.6629 82.7872
lradius 80.4294
lwrist -163.041
lhand -21.2089 2.50714
lfingers 7.12502
lthumb 5.17262 32.424
rfemur -3.60771 -3.98897 30.0536
rtibia 55.8124
rfoot 15.4006 -13.4414
rtoes -15.7788
lfemur -17.9588 3.25738 -14.2042
ltibia 79.4328
lfoot 19.4073 -3.30801
ltoes -31.6199
41
root 3.52443 21.293 -12.0364 1076.93 2.82626 -5.39004
lowerback 3.8977 -1.07347 0.794383
upperback 5.10882 -1.41523 -0.0423961
thorax 3.051 -0.679349 -0.471642
lowerneck -14.2849 -4.88037 -7.24652
upperneck 2.96217 -5.99352 10.343
head 3.73995 -2.55742 3.90732
rclavicle -4.07509e-015 7.15625e-015
rhumerus -46.5283 20.8647 -89.9961
rradius 73.321
rwrist 5.25741
rhand -17.2525 16.0892
rfingers 7.12502
rthumb 8.99165 -13.6992
lclavicle -4.07509e-015 7.15625e-015
lhumerus -33.8416 -13.4623 82.9339
lradius 80.1419
lwrist -163.925
lhand -21.2609 2.31596
lfingers 7.12502
lthumb 5.12245 32.234
rfemur -4.81867 -4.55258 29.7355
rtibia 57.0496
rfoot 13.8649 -13.7158
rtoes -13.4428
lfemur -19.1467 3.22612 -14.419
ltibia 79.3175
lfoot 18.889 -4.28494
ltoes -32.2858
42
root 3.53521 21.3758 -11.8307 1076.75 2.56731 -5.29961
lowerback 5.14052 -0.860519 0.81206
upperback 5.43184 -1.11837 -0.0932733
thorax 2.695 -0.529987 -0.520525
lowerneck -14.3484 -5.01758 -7.31648
upperneck 2.78026 -6.15144 10.3798
head 3.7122 -2.63565 3.91631
rclavicle -5.36719e-015 0
rhumerus -45.7312 21.1502 -90.0688
rradius 72.1777
rwrist 5.52304
rhand -16.981 16.2596
rfingers 7.12502
rthumb 9.25367 -13.5173
lclavicle -5.36719e-015 0
lhumerus -33.77 -12.3068 83.0593
lradius 79.8985
lwrist -164.583
lhand -21.2527 2.21243
lfingers 7.12502
lthumb 5.13036 32.1303
rfemur -6.06384 -4.99964 29.4598
rtibia 58.1019
rfoot 12.4757 -13.2064
rtoes -12.3517
lfemur -20.1864 3.13699 -14.6049
ltibia 78.7825
lfoot 18.6283 -5.05497
ltoes -32.4499
43
root 3.54564 21.4445 -11.6251 1076.65 2.33961 -5.18282
lowerback 6.30541 -0.658191 0.809359
upperback 5.70407 -0.837315 -0.162359
thorax 2.33363 -0.388759 -0.585823
lowerneck -14.3475 -5.14897 -7.38742
upperneck 2.64207 -6.31079 10.4463
head 3.68911 -2.71435 3.93528
rclavicle 1.25234e-014 1.74931e-014
rhumerus -45.0286 21.3744 -90.1931
rradius 71.0258
rwrist 5.71979
rhand -16.794 16.4704
rfingers 7.12502
rthumb 9.4341 -13.2984
lclavicle 1.25234e-014 1.74931e-014
lhumerus -33.8454 -11.2097 83.1722
lradius 79.7125
lwrist -165.044
lhand -21.1843 2.15087
lfingers 7.12502
lthumb 5.19636 32.0672
rfemur -7.39339 -5.41036 29.2059
rtibia 59.0024
rfoot 11.1828 -12.1403
rtoes -12.572
lfemur -21.121 2.90738 -14.7998
ltibia 77.8285
lfoot 18.3141 -5.57528
ltoes -32.8824
